<svg width="124" height="107" viewBox="0 0 124 107" fill="none" xmlns="http://www.w3.org/2000/svg">
<path d="M66.8058 33.3069C67.4245 26.6355 72.6984 21.7862 77.5598 17.75C79.9323 15.7938 82.4181 13.9783 85.0042 12.313C86.2351 11.5162 87.4905 10.7553 88.7705 10.0304C88.9964 9.90304 90.828 8.68336 91.3289 8.67846C92.3552 8.67846 92.8021 9.9765 93.1311 10.6819C98.2813 21.3527 99.8018 33.4079 97.4622 45.0187C97.3443 45.6163 99.0532 45.729 99.2741 45.2636L99.8634 44.0341C100.168 43.3925 98.3559 43.1182 98.0907 43.6717C97.8943 44.0782 97.6978 44.4897 97.5063 44.8962L99.3183 45.1412C100.695 38.2192 100.735 31.0988 99.4362 24.1619C98.8278 20.9221 97.9238 17.7446 96.7354 14.669C95.93 12.5922 94.9087 8.30129 92.4485 7.689C90.2044 7.12081 87.6313 9.18298 85.8144 10.2606C82.5965 12.1745 79.5211 14.3174 76.6121 16.6724C71.3824 20.9094 65.6076 26.0722 64.9545 33.1796C64.8956 33.8164 66.7469 33.9584 66.8058 33.3069Z" fill="#C60C30"/>
<path d="M99.4857 44.7946C105.043 38.9139 111.529 34.0283 118.671 30.3417L117.201 29.7929C112.539 39.9928 109.234 50.7842 107.374 61.8797C107.274 62.4819 109.062 62.6616 109.171 62.006C111.001 50.9892 114.273 40.2737 118.899 30.1474C119.194 29.4966 117.739 29.4384 117.425 29.5986C110.183 33.3221 103.606 38.2637 97.9689 44.2166C97.3889 44.8237 99.091 45.1879 99.4857 44.7848V44.7946Z" fill="#C60C30"/>
<path d="M66.606 33.2897C66.1813 23.9514 60.9467 16.1328 55.7885 8.81409C55.5022 8.41212 53.7939 8.16703 54.0325 8.94154C55.736 14.4808 55.34 20.2896 54.0325 25.8632C53.2256 29.0616 52.2475 32.2118 51.1027 35.2995C50.0338 38.324 49.0079 41.3535 47.2853 44.0741C46.9322 44.6378 48.6738 44.9711 49.0079 44.4417C50.7877 41.5937 51.8423 38.3976 52.9589 35.2358C54.0723 32.2084 55.028 29.1224 55.8219 25.9906C57.1819 20.3239 57.5254 14.4318 55.8219 8.8337L54.0659 8.96116C59.1669 16.2014 64.4206 23.9465 64.8357 33.1818C64.8643 33.8534 66.6633 33.9221 66.6394 33.3093L66.606 33.2897Z" fill="#C60C30"/>
<path d="M47.3431 44.4837C54.7625 52.8049 65.2163 57.6186 75.8021 60.7293C86.388 63.8401 97.4387 65.0834 108.357 63.2644C109.542 63.066 108.137 62.2968 107.476 62.4129C96.6655 64.2223 85.6343 62.7758 75.2393 59.5102C65.4071 56.443 55.8833 51.8615 48.9729 44.1063C48.5862 43.6758 46.7901 43.8354 47.3431 44.4595V44.4837Z" fill="#C60C30"/>
<path d="M92.7569 7.92497C91.8723 6.55686 89.9071 1.5254 92.8072 0.989174C94.2849 0.718558 95.0288 2.60786 95.1192 3.74545C95.1896 4.60742 94.697 8.02521 93.154 7.3186C92.5106 7.02292 91.0179 7.55915 92.1487 8.07533C96.7175 10.1701 98.8788 2.52768 94.9835 0.503066C93.5762 -0.228601 91.42 -0.243635 90.274 1.00421C88.545 2.85843 89.7714 6.25618 90.9173 8.07031C91.2641 8.61154 93.1088 8.48124 92.762 7.94001L92.7569 7.92497Z" fill="#C60C30"/>
<path d="M119.164 30.4328C118.543 28.9048 120.925 23.9995 121.952 26.1957C122.978 28.392 121.095 31.7589 118.764 30.956C118.458 30.8524 117.784 30.7125 117.54 31.044C117.295 31.3756 117.474 31.6138 117.817 31.733C119.494 32.3131 121.42 32.1732 122.752 30.7799C123.953 29.5212 124.495 27.154 123.43 25.6C122.489 24.2377 120.605 24.1549 119.343 25.0562C118.081 25.9575 116.758 28.8996 117.436 30.5571C117.676 31.158 119.433 31.0751 119.164 30.4225V30.4328Z" fill="#C60C30"/>
<path d="M55.5623 9.17765C54.0071 9.17765 53.2924 7.1772 53.3578 5.95192C53.4132 4.89668 53.8611 3.53137 54.8023 2.95124C56.1511 2.10104 56.3474 4.42657 56.2618 5.29677C56.1189 6.66102 55.4475 7.91651 54.3896 8.79757C53.7403 9.3577 55.5371 9.7978 55.9951 9.3827C57.5905 8.01739 58.6626 5.77188 58.0083 3.6564C57.4597 1.86599 55.4364 1.24584 53.8057 2.00601C51.9838 2.85621 51.1333 5.19674 51.5661 7.07217C52.0543 9.12264 54.0071 10.1229 56.0202 10.1229C56.3323 10.1229 56.8054 9.96283 56.7198 9.58775C56.6343 9.21266 55.8441 9.17765 55.5773 9.17765H55.5623Z" fill="#C60C30"/>
<path d="M74.3723 47.5006C75.6165 43.5049 77.2523 39.6444 79.2556 35.9764C81.0477 32.7134 83.3672 29.4553 87.2348 28.7406L85.8724 28.2476C85.6576 32.8259 84.9934 37.3714 83.8898 41.8174C83.6358 42.8032 83.3673 43.8186 83.0694 44.8093C82.7324 45.9233 82.4785 48.097 81.702 48.8857C81.5702 49.5856 81.1014 49.8074 80.2859 49.561C79.5583 49.418 78.8209 49.2406 78.1226 49.0286C76.8861 48.6467 75.6825 48.1637 74.5237 47.5844C74.0354 47.333 72.2676 47.7076 73.1759 48.1513C75.5164 49.3709 78.0411 50.1904 80.6473 50.5763C82.9375 50.8425 83.3428 49.6152 84.0656 47.5795C86.1852 41.3799 87.4184 34.907 87.728 28.3561C87.7573 27.7991 86.6879 27.804 86.3656 27.8632C82.6983 28.5385 80.1443 31.1607 78.2642 34.271C75.85 38.3872 73.9335 42.7808 72.5557 47.3577C72.3897 47.8949 74.1916 48.1512 74.4016 47.4858L74.3723 47.5006Z" fill="#C60C30"/>
<path d="M55.7794 41.121C56.8868 39.6527 57.7347 37.9958 58.2843 36.2259C58.4748 35.6728 59.8987 30.5672 60.0035 30.5819L59.1605 30.1805C60.113 32.2267 59.8796 35.3007 59.5844 37.4937C59.4427 38.5238 59.2262 39.5416 58.9367 40.5384L58.4605 41.8944C58.3268 41.7926 58.1792 41.7118 58.0224 41.6545C57.5795 41.6154 56.7033 40.9937 56.3366 40.8126C55.8603 40.5629 54.1412 40.9349 55.0222 41.3755C56.3889 42.0608 58.951 44.1216 60.1797 42.2615C61.0892 40.886 61.294 38.4434 61.4511 36.8476C61.6659 35.0397 61.6081 33.2087 61.2797 31.419C60.9892 30.0288 59.7796 28.6777 58.4605 30.1854C57.5938 31.1644 57.3366 33.3329 56.9652 34.5224C56.2651 36.7839 55.5032 38.8692 54.0412 40.7342C53.6602 41.2237 55.3746 41.5958 55.7604 41.1014L55.7794 41.121Z" fill="#C60C30"/>
<path d="M102.44 54.9814C103.525 51.479 104.972 47.8627 108.524 46.3345L107.044 45.9122C105.973 49.5506 104.791 53.1526 103.497 56.7183L104.982 56.6187C103.93 56.0824 102.906 55.5081 101.9 54.8864C101.435 54.5922 99.773 54.9149 100.616 55.4322C101.621 56.0539 102.645 56.6329 103.697 57.1692C103.995 57.321 105.005 57.5536 105.177 57.0695C106.499 53.4311 107.708 49.7531 108.803 46.0355C108.966 45.4708 107.57 45.5088 107.323 45.6132C103.473 47.26 101.872 51.0281 100.685 54.8627C100.527 55.38 102.245 55.622 102.44 54.9814Z" fill="#C60C30"/>
<path d="M47.2383 44.2716C47.8269 49.9002 52.4965 53.5993 56.8597 56.6245C62.6291 60.6205 68.9705 63.7259 75.6697 65.8358C85.8505 69.0404 101.698 72.4874 109.603 62.927C109.997 62.4422 108.25 62.0786 107.847 62.5634C104.014 67.203 98.0209 68.3471 92.2811 68.032C86.1236 67.6526 80.0527 66.3938 74.2542 64.2941C68.7024 62.3195 63.431 59.6356 58.572 56.3094C54.3693 53.4296 49.6655 49.8372 49.0964 44.3976C49.0283 43.7286 47.1994 43.6898 47.2578 44.2764L47.2383 44.2716Z" fill="#C60C30"/>
<path d="M0.0272756 88.678C4.56266 96.2282 12.3015 100.825 20.4876 103.456C27.8472 105.827 37.9874 108.346 44.929 103.602C47.7922 101.646 50.0915 98.3407 49.8873 94.7416C49.6929 91.4115 46.9221 88.3015 43.4367 89.4849C42.7247 89.7227 42.0746 90.1176 41.534 90.6408C40.9933 91.164 40.5758 91.8022 40.3121 92.5087C40.0483 93.2152 39.9449 93.9721 40.0095 94.7239C40.0741 95.4758 40.305 96.2036 40.6853 96.8541C42.6784 100.277 46.9561 100.869 50.5193 100.277C59.6144 98.7514 67.64 92.1744 71.6553 83.9543C71.9858 83.2746 70.4108 83.4653 70.1969 83.9201C67.3632 89.8003 62.6368 94.5444 56.7852 97.3822C53.2804 99.0546 48.5214 100.703 44.8221 98.7465C44.0931 98.3843 43.4433 97.8795 42.9108 97.2615C42.3783 96.6435 41.9737 95.9248 41.7207 95.1475C41.5053 94.3982 41.4936 93.6046 41.6867 92.8492C41.8203 92.3754 42.0287 91.9263 42.3041 91.5191C42.8631 90.6927 44.5304 90.1206 45.4735 90.3504C47.0242 90.7318 47.9721 92.9225 48.2151 94.3015C48.486 96.0544 48.166 97.8481 47.3061 99.3969C45.3617 103.04 41.6187 104.864 37.6472 105.206C30.9875 105.778 23.4771 103.656 17.3813 101.079C10.9307 98.3504 5.16543 94.1499 1.5099 88.0619C1.23768 87.6169 -0.298423 88.1206 0.0515751 88.6829L0.0272756 88.678Z" fill="#C60C30"/>
</svg>
