<svg width="218" height="61" viewBox="0 0 218 61" fill="none" xmlns="http://www.w3.org/2000/svg">
<path d="M25.1733 60.4636V59.2906C27.5506 59.2906 28.7392 58.5087 28.7392 56.9447C28.7392 56.4979 28.6333 55.9952 28.4215 55.4366L24.6437 44.5448H11.298L8.47348 52.4204C7.76736 54.4089 7.41429 55.8499 7.41429 56.7436C7.41429 58.397 8.50879 59.246 10.6978 59.2906V60.4636H0V59.2906C1.52993 59.0896 2.71857 58.6092 3.56592 57.8496C4.41327 57.0899 5.27239 55.5148 6.14327 53.1242L17.5825 20.7168H21.8545L33.8586 54.5653C34.5647 56.5537 35.2944 57.8384 36.0476 58.4193C36.8243 59.0002 38.06 59.2906 39.7547 59.2906V60.4636H25.1733ZM12.0747 42.1318H23.7257L17.8649 25.4757L12.0747 42.1318Z" fill="#14212A"/>
<path d="M75.8376 51.8842H77.0734L74.5313 60.4636H44.5211V59.2906C46.2158 59.2906 47.4162 58.788 48.1223 57.7826C48.852 56.7771 49.2168 55.0903 49.2168 52.722V27.9892C49.2168 25.8667 48.8755 24.3921 48.1929 23.5654C47.5339 22.7164 46.3099 22.2919 44.5211 22.2919V21.1525H59.3497V22.2919C57.702 22.2919 56.5134 22.7723 55.7837 23.733C55.0776 24.6937 54.7246 26.28 54.7246 28.4919V54.7663C54.7246 56.2186 55.0423 57.2128 55.6778 57.749C56.3369 58.2853 57.5844 58.5534 59.4203 58.5534H67.6466C70.1887 58.5534 71.9657 58.14 72.9778 57.3134C73.99 56.4644 74.9432 54.6546 75.8376 51.8842Z" fill="#14212A"/>
<path d="M104.33 60.4636V59.2906C106.707 59.2906 107.896 58.5087 107.896 56.9447C107.896 56.4979 107.79 55.9952 107.578 55.4366L103.8 44.5448H90.4544L87.6299 52.4204C86.9238 54.4089 86.5707 55.8499 86.5707 56.7436C86.5707 58.397 87.6652 59.246 89.8542 59.2906V60.4636H79.1564V59.2906C80.6864 59.0896 81.875 58.6092 82.7223 57.8496C83.5697 57.0899 84.4288 55.5148 85.2997 53.1242L96.7389 20.7168H101.011L113.015 54.5653C113.721 56.5537 114.451 57.8384 115.204 58.4193C115.981 59.0002 117.216 59.2906 118.911 59.2906V60.4636H104.33ZM91.2311 42.1318H102.882L97.0213 25.4757L91.2311 42.1318Z" fill="#14212A"/>
<path d="M155.241 21.1525V22.359C152.205 22.359 149.698 24.906 147.721 30L135.505 60.9998H134.34L121.524 29.0951C120.323 26.146 119.288 24.2916 118.417 23.5319C117.546 22.7499 116.299 22.3366 114.674 22.2919V21.1525H129.715V22.2919C127.29 22.2919 126.078 23.1744 126.078 24.9395C126.078 25.5204 126.231 26.1795 126.537 26.9168L136.67 52.2864L146.273 27.7881C146.674 26.738 146.874 25.8332 146.874 25.0735C146.874 23.2191 145.638 22.2919 143.167 22.2919V21.1525H155.241Z" fill="#14212A"/>
<path d="M173.141 21.1525V22.2919C171.376 22.2919 170.152 22.7499 169.47 23.666C168.787 24.582 168.446 26.213 168.446 28.5589V53.0572C168.446 55.4031 168.787 57.0341 169.47 57.9501C170.152 58.8438 171.376 59.2906 173.141 59.2906V60.4636H158.242V59.2906C160.055 59.2906 161.29 58.8438 161.949 57.9501C162.608 57.0564 162.938 55.4254 162.938 53.0572V28.5589C162.938 26.146 162.608 24.5038 161.949 23.6325C161.314 22.7388 160.078 22.2919 158.242 22.2919V21.1525H173.141Z" fill="#14212A"/>
<path d="M191.077 42.2659H187.723V53.0572C187.723 55.3808 188.064 57.0006 188.747 57.9166C189.453 58.8326 190.689 59.2906 192.454 59.2906V60.4636H177.555V59.2906C179.391 59.2906 180.626 58.8326 181.262 57.9166C181.921 57.0006 182.25 55.3808 182.25 53.0572V28.4249C182.25 26.1013 181.933 24.5038 181.297 23.6325C180.662 22.7388 179.414 22.2919 177.555 22.2919V21.1525H194.537C198.727 21.1525 202.069 22.1244 204.564 24.0681C207.082 25.9896 208.342 28.4472 208.342 31.4411C208.342 36.267 205.494 39.4843 199.798 41.0929C201.045 41.8525 202.257 42.9026 203.434 44.2432C204.635 45.5614 206.2 47.7621 208.13 50.8453C210.295 54.2636 211.99 56.509 213.214 57.5815C214.438 58.6316 215.709 59.2013 217.027 59.2906V60.4636H208.554C206.812 58.4528 204.705 55.526 202.234 51.6831C199.598 47.6392 197.526 45.0587 196.02 43.9415C194.537 42.8244 192.889 42.2659 191.077 42.2659ZM192.066 22.6606H187.723V40.6237H192.807C195.843 40.6237 198.221 39.7971 199.939 38.1437C201.681 36.4904 202.551 34.3009 202.551 31.5751C202.551 28.9164 201.586 26.7715 199.656 25.1406C197.75 23.4872 195.22 22.6606 192.066 22.6606Z" fill="#14212A"/>
<path d="M156.381 18.7987C156.381 15.568 159.432 14.9623 161.912 14.9623H166.298V18.7987H156.381Z" fill="#B11616"/>
<path d="M176.215 18.7987C176.215 15.568 173.164 14.9623 170.684 14.9623H166.298V18.7987H176.215Z" fill="#B11616"/>
<path d="M174.629 14.195C169.289 13.106 161.344 13.7412 158.039 14.195C156.971 13.5727 155.178 9.13923 154.416 7.00026L157.085 5.83355C157.848 7.2336 159.437 8.23178 160.136 8.55587C160.594 8.55587 161.344 5.57428 161.662 4.08348H164.332C164.332 5.01685 165.73 7.06507 166.429 7.97252C166.887 6.57246 168.018 4.79647 168.527 4.08348H171.196C171.501 4.70573 172.341 7.32434 172.722 8.55587C173.18 8.86699 174.947 6.87062 175.773 5.83355L178.252 7.00026C177.642 10.267 175.582 13.1579 174.629 14.195Z" fill="#B11616"/>
<path d="M165.666 2.33342C165.666 3.62213 164.386 4.66684 162.806 4.66684C161.226 4.66684 159.946 3.62213 159.946 2.33342C159.946 1.04471 161.226 0 162.806 0C164.386 0 165.666 1.04471 165.666 2.33342Z" fill="#B11616"/>
<path d="M173.103 2.33342C173.103 3.62213 171.823 4.66684 170.243 4.66684C168.663 4.66684 167.383 3.62213 167.383 2.33342C167.383 1.04471 168.663 0 170.243 0C171.823 0 173.103 1.04471 173.103 2.33342Z" fill="#B11616"/>
<path d="M180.735 6.02298C180.426 7.27254 178.934 7.96605 177.402 7.57199C175.871 7.17792 174.879 5.8455 175.189 4.59594C175.498 3.34639 176.99 2.65287 178.522 3.04694C180.054 3.441 181.045 4.77342 180.735 6.02298Z" fill="#B11616"/>
<path d="M157.82 4.6147C158.086 5.87462 157.049 7.17051 155.505 7.50915C153.96 7.8478 152.493 7.10097 152.227 5.84105C151.961 4.58114 152.998 3.28525 154.542 2.9466C156.087 2.60796 157.554 3.35479 157.82 4.6147Z" fill="#B11616"/>
</svg>
